<?xml version="1.0" encoding="UTF-8"?>
<svg version="1.1" xmlns="http://www.w3.org/2000/svg" width="161" height="138">
<path d="M0 0 C53.13 0 106.26 0 161 0 C161 45.54 161 91.08 161 138 C107.87 138 54.74 138 0 138 C0 92.46 0 46.92 0 0 Z " fill="transparent" transform="translate(0,0)"/>
<path d="M0 0 C1.13046501 -0.02209282 1.13046501 -0.02209282 2.2837677 -0.04463196 C3.87991207 -0.06857778 5.47620364 -0.08400253 7.07250977 -0.09155273 C9.49562034 -0.11306893 11.91227853 -0.19316078 14.33398438 -0.27539062 C15.88928974 -0.29139742 17.44463617 -0.30387739 19 -0.3125 C19.71488083 -0.34437912 20.42976166 -0.37625824 21.16630554 -0.40910339 C24.68265469 -0.36286567 26.60111039 -0.14288434 29.17636108 2.38368225 C29.79371124 3.10639816 30.4110614 3.82911407 31.04711914 4.57373047 C34.35051539 8.1910664 36.42321927 9.18154205 41.31738281 9.52661133 C43.61913256 9.54683791 45.92151471 9.52539498 48.22265625 9.46875 C50.05591461 9.47439217 50.05591461 9.47439217 51.9262085 9.48014832 C55.81263609 9.48643578 59.69599419 9.43944751 63.58203125 9.38671875 C67.48172254 9.36052536 71.38092114 9.34567796 75.28070068 9.34684753 C77.70253475 9.34481563 80.12442924 9.32547843 82.54595947 9.2870636 C83.64099792 9.28103622 84.73603638 9.27500885 85.86425781 9.26879883 C86.82607971 9.25577225 87.78790161 9.24274567 88.77886963 9.22932434 C91.98016024 9.6617714 93.22715643 10.09186514 95.33203125 12.57421875 C95.72909895 15.43056277 95.86877433 17.90381238 95.83374023 20.76171875 C95.84184471 22.01335815 95.84184471 22.01335815 95.85011292 23.2902832 C95.86263312 26.05195448 95.84608771 28.81258993 95.828125 31.57421875 C95.82827991 33.49088597 95.82976759 35.40755352 95.83253479 37.32421875 C95.83392026 41.34258865 95.82133606 45.36060227 95.79858398 49.37890625 C95.77019894 54.53419972 95.77293472 59.68890099 95.7856741 64.84423828 C95.79262335 68.80246046 95.78485062 72.76054535 95.77241707 76.71875 C95.76789523 78.61978631 95.76757214 80.52083733 95.77148247 82.421875 C95.77438731 85.07713115 95.75792291 87.73156625 95.73608398 90.38671875 C95.74058563 91.1753833 95.74508728 91.96404785 95.74972534 92.77661133 C95.67669046 98.11086821 95.67669046 98.11086821 94.06636143 100.27575111 C91.93493642 101.87151784 90.83827354 101.95107857 88.19506836 101.95516968 C87.35386444 101.96362915 86.51266052 101.97208862 85.64596558 101.98080444 C84.26660324 101.9716954 84.26660324 101.9716954 82.859375 101.96240234 C81.40291061 101.97028778 81.40291061 101.97028778 79.91702271 101.97833252 C76.70102955 101.99155792 73.48552962 101.98278529 70.26953125 101.97265625 C68.03898015 101.97467625 65.80842969 101.97758707 63.57788086 101.98135376 C58.9004895 101.98578056 54.22326986 101.97933448 49.54589844 101.96533203 C43.54317048 101.9482401 37.5408449 101.95807935 31.53813171 101.97604942 C26.9314062 101.98687755 22.32477646 101.98344536 17.7180481 101.97566605 C15.50440422 101.97366136 13.29075172 101.97613269 11.07711792 101.98310471 C7.98607266 101.99070309 4.89568374 101.97913729 1.8046875 101.96240234 C0.88511261 101.96847504 -0.03446228 101.97454773 -0.98190308 101.98080444 C-1.82310699 101.97234497 -2.66431091 101.9638855 -3.53100586 101.95516968 C-4.26177841 101.9540386 -4.99255096 101.95290752 -5.74546814 101.95174217 C-8.27564635 101.45488848 -9.15164883 100.63898815 -10.66796875 98.57421875 C-10.96443498 95.50244579 -11.07753242 92.63348058 -11.05615234 89.56054688 C-11.06403778 88.17723427 -11.06403778 88.17723427 -11.07208252 86.76597595 C-11.08530511 83.71230214 -11.07653636 80.65914802 -11.06640625 77.60546875 C-11.06842633 75.48701884 -11.07133722 73.3685696 -11.07510376 71.25012207 C-11.07953018 66.80811957 -11.07308575 62.36629791 -11.05908203 57.92431641 C-11.04199008 52.22425186 -11.05182955 46.52461106 -11.06979942 40.82456207 C-11.08062861 36.44945063 -11.07719488 32.07444001 -11.06941605 27.69932556 C-11.06741165 25.59732514 -11.06988168 23.49531562 -11.07685471 21.39332581 C-11.08445487 18.4579333 -11.07288497 15.52323155 -11.05615234 12.58789062 C-11.06222504 11.71506943 -11.06829773 10.84224823 -11.07455444 9.94297791 C-11.01191064 4.02526357 -11.01191064 4.02526357 -9.35831642 1.85674286 C-6.57205239 -0.25729016 -3.3674504 0.04464799 0 0 Z " fill="#BCC1CD" transform="translate(38.66796875,15.42578125)"/>
<path d="M0 0 C1.13046501 -0.02209282 1.13046501 -0.02209282 2.2837677 -0.04463196 C3.87991207 -0.06857778 5.47620364 -0.08400253 7.07250977 -0.09155273 C9.49562034 -0.11306893 11.91227853 -0.19316078 14.33398438 -0.27539062 C15.88928974 -0.29139742 17.44463617 -0.30387739 19 -0.3125 C19.71488083 -0.34437912 20.42976166 -0.37625824 21.16630554 -0.40910339 C24.68265469 -0.36286567 26.60111039 -0.14288434 29.17636108 2.38368225 C29.79371124 3.10639816 30.4110614 3.82911407 31.04711914 4.57373047 C34.35051539 8.1910664 36.42321927 9.18154205 41.31738281 9.52661133 C43.61913256 9.54683791 45.92151471 9.52539498 48.22265625 9.46875 C50.05591461 9.47439217 50.05591461 9.47439217 51.9262085 9.48014832 C55.81263609 9.48643578 59.69599419 9.43944751 63.58203125 9.38671875 C67.48172254 9.36052536 71.38092114 9.34567796 75.28070068 9.34684753 C77.70253475 9.34481563 80.12442924 9.32547843 82.54595947 9.2870636 C83.64099792 9.28103622 84.73603638 9.27500885 85.86425781 9.26879883 C86.82607971 9.25577225 87.78790161 9.24274567 88.77886963 9.22932434 C91.33203125 9.57421875 91.33203125 9.57421875 95.33203125 12.57421875 C95.33203125 17.85421875 95.33203125 23.13421875 95.33203125 28.57421875 C60.35203125 28.57421875 25.37203125 28.57421875 -10.66796875 28.57421875 C-10.66796875 20.32421875 -10.66796875 12.07421875 -10.66796875 3.57421875 C-7.04442211 -0.04932789 -4.81953468 0.06390073 0 0 Z " fill="#ABAEBC" transform="translate(38.66796875,15.42578125)"/>
<path d="M0 0 C1.0209375 -0.05800781 2.041875 -0.11601563 3.09375 -0.17578125 C7.54651374 -0.25018476 10.65071048 -0.23742582 14.36621094 2.37988281 C20.77740511 8.70525109 20.77740511 8.70525109 21.02026367 13.48242188 C21.06067838 19.9105326 21.06067838 19.9105326 21.06030273 23.05615234 C21.06249158 25.11707127 21.08065983 27.1774569 21.09960938 29.23828125 C21.10154297 30.53121094 21.10347656 31.82414062 21.10546875 33.15625 C21.10957764 34.34798828 21.11368652 35.53972656 21.11791992 36.76757812 C20.875 39.625 20.875 39.625 18.875 41.625 C15.92578125 41.88378906 15.92578125 41.88378906 12.1875 41.890625 C11.52919189 41.89253845 10.87088379 41.8944519 10.19262695 41.89642334 C8.8006146 41.8977845 7.40858953 41.89409283 6.01660156 41.88574219 C3.88317411 41.875041 1.75058869 41.88563906 -0.3828125 41.8984375 C-1.73437686 41.89711589 -3.0859407 41.89455347 -4.4375 41.890625 C-5.67113281 41.88836914 -6.90476562 41.88611328 -8.17578125 41.88378906 C-11.125 41.625 -11.125 41.625 -13.125 39.625 C-13.32482025 36.85164573 -13.404792 34.18030357 -13.390625 31.40625 C-13.39253845 30.59256958 -13.3944519 29.77888916 -13.39642334 28.94055176 C-13.39778527 27.218991 -13.39408828 25.49741997 -13.38574219 23.77587891 C-13.37504258 21.1355083 -13.385637 18.49581811 -13.3984375 15.85546875 C-13.39711591 14.18489433 -13.39455352 12.51432033 -13.390625 10.84375 C-13.39467346 10.05101685 -13.39872192 9.25828369 -13.40289307 8.44152832 C-13.32044394 -1.15997492 -8.06291065 0.14931316 0 0 Z " fill="#E6E8EB" transform="translate(79.125,58.375)"/>
<path d="M0 0 C3.387199 1.4388102 5.3594104 3.22119499 7.75 6 C8.67039062 7.051875 8.67039062 7.051875 9.609375 8.125 C11 10 11 10 11 12 C9.54207116 12.05399736 8.08357288 12.09279177 6.625 12.125 C5.81289062 12.14820312 5.00078125 12.17140625 4.1640625 12.1953125 C2 12 2 12 0 10 C-0.1953125 7.6171875 -0.1953125 7.6171875 -0.125 4.875 C-0.10695313 3.96492188 -0.08890625 3.05484375 -0.0703125 2.1171875 C-0.04710938 1.41851562 -0.02390625 0.71984375 0 0 Z " fill="#D6D8DF" transform="translate(89,59)"/>
</svg>
