<?xml version="1.0" encoding="UTF-8"?>
<svg version="1.1" xmlns="http://www.w3.org/2000/svg" width="431" height="409">
<path d="M0 0 C142.23 0 284.46 0 431 0 C431 134.97 431 269.94 431 409 C288.77 409 146.54 409 0 409 C0 274.03 0 139.06 0 0 Z " fill="#2563eb" transform="translate(0,0)"/>
<path d="M0 0 C0 3.88433166 -1.17079686 4.67605496 -3.75 7.5 C-4.44609375 8.2734375 -5.1421875 9.046875 -5.859375 9.84375 C-7.80108592 11.79963399 -9.74930748 13.41843228 -12 15 C-12.66 14.67 -13.32 14.34 -14 14 C-9.38 9.38 -4.76 4.76 0 0 Z " fill="#2A70F3" transform="translate(263,222)"/>
<path d="M0 0 C142.23 0 284.46 0 431 0 C431 134.97 431 269.94 431 409 C288.77 409 146.54 409 0 409 C0 274.03 0 139.06 0 0 Z M112.6875 39.4375 C109.05442612 44.95438997 108.73486309 49.38237163 108.875 55.8125 C108.88402344 56.60076172 108.89304687 57.38902344 108.90234375 58.20117188 C108.92577496 60.13424666 108.96164162 62.0671638 109 64 C108.03811768 63.97905273 107.07623535 63.95810547 106.08520508 63.93652344 C102.45287478 63.86310427 98.82060721 63.81783794 95.18774414 63.78027344 C93.62740993 63.76038635 92.06714791 63.73326648 90.50708008 63.69824219 C79.17907315 63.45063548 68.62051417 63.80700769 58.71875 70.078125 C49.97634758 78.63582878 44.14602646 87.31603034 43.62247658 99.91668606 C43.60622949 101.66569067 43.60588894 103.4148946 43.61904907 105.16392517 C43.6143691 106.13659366 43.60968913 107.10926214 43.60486734 108.11140543 C43.59298014 111.34386228 43.60235008 114.57589023 43.61181641 117.80834961 C43.6077479 120.1367772 43.60240445 122.46520286 43.59588623 124.79362488 C43.5822394 131.09940369 43.5875007 137.40503483 43.59702349 143.71081614 C43.60386229 149.64940443 43.59863418 155.5879747 43.5942419 161.52656347 C43.58570099 174.0063028 43.59550135 186.48597587 43.611643 198.96570433 C43.62504188 209.65547344 43.62271915 220.34514477 43.60888672 231.03491211 C43.59280247 243.47058662 43.58652813 255.90620312 43.59572351 268.34188658 C43.60039186 274.91661237 43.60104798 281.49127093 43.59111404 288.06599236 C43.58242393 294.2491314 43.58850382 300.43208651 43.60579681 306.61520576 C43.60975088 308.87945882 43.6086462 311.14372746 43.60200882 313.40797424 C43.59376046 316.50855289 43.60415477 319.60854922 43.61904907 322.70909119 C43.60901082 324.03986605 43.60901082 324.03986605 43.59876978 325.39752525 C43.69916648 336.23873339 46.62008803 347.01285044 53.97265625 355.1953125 C61.11071525 362.01864227 69.87945982 366.11308708 79.82874203 366.13422108 C80.8040399 366.13867892 81.77933777 366.14313676 82.78419012 366.14772969 C83.85313672 366.14754533 84.92208332 366.14736097 86.02342224 366.14717102 C87.16106225 366.15084771 88.29870225 366.1545244 89.4708162 366.1583125 C93.29752457 366.16935919 97.12420579 366.1731949 100.95092773 366.17700195 C103.68901299 366.1827339 106.42709417 366.18989994 109.16517639 366.19691467 C117.39352574 366.21666905 125.62187629 366.22674518 133.85024342 366.23564246 C137.72825312 366.24002811 141.60626147 366.2453943 145.4842701 366.25063133 C158.38196625 366.26764458 171.27966156 366.28213683 184.17736721 366.28938007 C187.5237624 366.29128988 190.87015758 366.29321022 194.21655273 366.29516602 C195.46410288 366.29589163 195.46410288 366.29589163 196.73685605 366.2966319 C210.19763665 366.30492497 223.65832818 366.33024922 237.11906993 366.36274669 C250.94948288 366.39586337 264.77985066 366.4138331 278.61030346 366.41702431 C286.37122912 366.41918543 294.13202499 366.42787528 301.89291191 366.45348549 C308.50534326 366.47525578 315.1176133 366.48321206 321.73007642 366.47351871 C325.09993388 366.46899175 328.46919069 366.47297342 331.83904648 366.49028015 C354.95389141 367.12116172 354.95389141 367.12116172 375.06640625 356.984375 C385.04115332 346.74766488 387.15402485 335.18016653 387.14044189 321.35542297 C387.14341302 320.40235754 387.14638414 319.4492921 387.1494453 318.46734589 C387.15809611 315.28331601 387.15963747 312.09932389 387.16113281 308.9152832 C387.16576353 306.62833069 387.17078853 304.34137895 387.17617798 302.0544281 C387.18927916 295.84762355 387.19574244 289.64082981 387.20018864 283.43401361 C387.20312293 279.55351826 387.20722841 275.67302584 387.21169281 271.79253197 C387.22379673 261.03415288 387.23418052 250.27577764 387.2375679 239.51739216 C387.23778747 238.82973572 387.23800703 238.14207928 387.23823325 237.43358476 C387.23845153 236.74434914 387.23866981 236.05511353 387.2388947 235.34499198 C387.23933816 233.94850051 387.23978472 232.55200905 387.24023438 231.15551758 C387.2404558 230.46281996 387.24067723 229.77012234 387.24090537 229.05643388 C387.24485115 217.83906571 387.26230093 206.62176258 387.2855939 195.40441952 C387.30935276 183.868968 387.32151422 172.33355835 387.32293582 160.7980811 C387.32398241 154.32889912 387.32985947 147.85980898 387.34775543 141.3906498 C387.36426957 135.3027766 387.3663753 129.21506394 387.35761642 123.12717628 C387.35684786 120.89881459 387.36116486 118.67044414 387.37107468 116.44210434 C387.54199334 93.41094416 387.54199334 93.41094416 376.1484375 74.03125 C367.92113193 66.29561607 359.18142069 63.82248963 348.07421875 63.90234375 C347.32662796 63.9037587 346.57903717 63.90517365 345.80879211 63.90663147 C343.43498635 63.91220236 341.06127697 63.9247494 338.6875 63.9375 C337.07226699 63.94251877 335.4570325 63.94708101 333.84179688 63.95117188 C329.89449445 63.96216225 325.94726353 63.97940668 322 64 C322.05800781 62.72125 322.11601562 61.4425 322.17578125 60.125 C322.22271247 58.41670344 322.268209 56.70836705 322.3125 55 C322.35439453 54.16082031 322.39628906 53.32164063 322.43945312 52.45703125 C322.56158763 46.15489097 321.22931318 41.77429851 317 37 C311.83280075 33.24174233 307.30506012 32.28813837 301 33 C295.56120134 34.84919155 292.22638275 38.37586838 289 43 C286.78389731 49.64830806 288 56.99206799 288 64 C240.48 64 192.96 64 144 64 C144 58.06 144 52.12 144 46 C141.0928854 40.18577079 139.11655606 36.45439283 133.1875 33.6875 C124.46235717 31.80560645 118.9620367 32.82379915 112.6875 39.4375 Z " fill="#FAFAFA" transform="translate(0,0)"/>
<path d="M0 0 C4.52406494 2.58162238 7.38677378 4.91711787 8.87890625 10.08984375 C9.16273353 17.26293319 6.79908195 21.86706324 2.04981232 27.10847855 C-0.27013059 29.51330208 -2.6213118 31.8831319 -4.98535156 34.24462891 C-6.3275753 35.59692848 -6.3275753 35.59692848 -7.69691467 36.97654724 C-10.14063436 39.43785713 -12.59073314 41.89271806 -15.04262257 44.34588671 C-16.57687858 45.88156855 -18.10969989 47.41866756 -19.64202118 48.95627975 C-24.99539332 54.32812729 -30.35387932 59.69481141 -35.71728516 65.05664062 C-40.70471491 70.04286884 -45.68088011 75.04014526 -50.6518929 80.0427357 C-54.93109914 84.34814662 -59.21803569 88.64575674 -63.5110023 92.93744695 C-66.07011831 95.49605468 -68.62607904 98.05762511 -71.17429352 100.62709427 C-74.01811788 103.49399159 -76.87785673 106.3444931 -79.73925781 109.19384766 C-80.57383011 110.03965897 -81.4084024 110.88547028 -82.26826477 111.75691223 C-87.45275488 116.88619002 -92.32060926 121.08543469 -99.66015625 122.62109375 C-104.99127969 122.54122673 -107.88924838 121.58571602 -112.12109375 118.08984375 C-112.95060547 117.43628906 -112.95060547 117.43628906 -113.796875 116.76953125 C-117.82812775 113.49804898 -121.14965621 109.84509241 -124.50390625 105.89453125 C-126.1618181 103.94475758 -126.1618181 103.94475758 -128.62109375 102.08984375 C-130.78196103 100.36114993 -132.27884658 98.79900931 -134.0390625 96.69921875 C-137.13601959 93.11965049 -140.39995768 89.74313045 -143.765625 86.41796875 C-144.2652475 85.92389526 -144.76487 85.42982178 -145.27963257 84.92077637 C-147.35849274 82.86940396 -149.44114128 80.82196611 -151.52807617 78.77880859 C-153.06999202 77.26708909 -154.60562712 75.74920769 -156.140625 74.23046875 C-157.04917236 73.33875977 -157.95771973 72.44705078 -158.89379883 71.52832031 C-161.9842312 68.14486766 -163.03865078 66.22343458 -163.37109375 61.65234375 C-162.92582609 55.30727963 -160.89654097 52.28291936 -156.12109375 48.08984375 C-153.45255548 47.20033099 -151.63567906 46.86917438 -148.87109375 46.77734375 C-147.78054687 46.72126953 -147.78054687 46.72126953 -146.66796875 46.6640625 C-139.08910086 47.93108182 -133.91109844 53.89798077 -128.78125 59.13671875 C-128.01429306 59.90792053 -127.24733612 60.67912231 -126.45713806 61.47369385 C-124.02544826 63.92208527 -121.60443842 66.38073342 -119.18359375 68.83984375 C-117.52999281 70.50850245 -115.87570298 72.17647876 -114.22070312 73.84375 C-110.17949268 77.91791668 -106.14698385 82.0005406 -102.12109375 86.08984375 C-98.1961789 84.50057033 -95.5684811 81.79983589 -92.65332031 78.83325195 C-91.85241974 78.03038002 -91.85241974 78.03038002 -91.03533936 77.21128845 C-89.27282264 75.44228678 -87.51739307 73.66641541 -85.76171875 71.890625 C-84.53157894 70.65420938 -83.30091895 69.4183111 -82.06976318 68.1829071 C-78.82666855 64.92650921 -75.58917719 61.66460201 -72.35327148 58.40106201 C-67.18991472 53.19461898 -62.01996712 47.99474455 -56.84654999 42.79829979 C-55.0495642 40.9911838 -53.25608796 39.18063986 -51.46295166 37.3697052 C-46.37159739 32.241165 -41.26432515 27.19723722 -35.759552 22.50666809 C-33.42788138 20.49040208 -31.28497441 18.31418746 -29.140625 16.1015625 C-27.85961914 14.79541992 -27.85961914 14.79541992 -26.55273438 13.46289062 C-24.79116155 11.65665451 -23.03340717 9.84668728 -21.27929688 8.03320312 C-20.42916016 7.16888672 -19.57902344 6.30457031 -18.703125 5.4140625 C-17.94233643 4.63119873 -17.18154785 3.84833496 -16.39770508 3.04174805 C-11.66597526 -1.01510771 -5.92199125 -2.54111227 0 0 Z " fill="#F1F3F7" transform="translate(296.12109375,160.91015625)"/>
<path d="M0 0 C3.53372712 1.96318174 6.24479785 4.04070881 9 7 C2.29787234 5.06382979 2.29787234 5.06382979 0 2 C0 1.34 0 0.68 0 0 Z " fill="transparent" transform="translate(180,276)"/>
</svg>
