<?xml version="1.0" encoding="UTF-8"?>
<svg version="1.1" xmlns="http://www.w3.org/2000/svg" width="181" height="170">
<path d="M0 0 C59.73 0 119.46 0 181 0 C181 56.1 181 112.2 181 170 C121.27 170 61.54 170 0 170 C0 113.9 0 57.8 0 0 Z " fill="#3972E5" transform="translate(0,0)"/>
<path d="M0 0 C59.73 0 119.46 0 181 0 C181 56.1 181 112.2 181 170 C121.27 170 61.54 170 0 170 C0 113.9 0 57.8 0 0 Z M8 15 C3.19621336 22.18695627 2.27339888 28.58881619 2.35302734 37.08398438 C2.34426575 38.24956375 2.33550415 39.41514313 2.32647705 40.61604309 C2.30459536 44.44233187 2.31899755 48.26745089 2.3359375 52.09375 C2.33256617 54.76836565 2.32771749 57.44294672 2.32144165 60.11755371 C2.31237496 65.7124482 2.32425391 71.30701142 2.34814453 76.90185547 C2.37535061 83.34708568 2.36653429 89.79152476 2.3390125 96.23673582 C2.31623664 101.79550246 2.3131624 107.35403255 2.32620585 112.91283083 C2.33395426 116.22192196 2.33317351 119.53056516 2.31852341 122.83964539 C2.3057611 126.5323053 2.32527065 130.22346672 2.35302734 133.91601562 C2.34290619 134.99579178 2.33278503 136.07556793 2.32235718 137.18806458 C2.43541541 145.34646764 4.37202994 152.02096089 9.96036339 158.15006256 C17.863739 165.77735602 26.06869578 166.44318626 36.59130859 166.38818359 C38.45628242 166.39606903 38.45628242 166.39606903 40.3589325 166.40411377 C43.74971288 166.41501303 47.13994003 166.41251712 50.53068876 166.40297651 C54.09343384 166.39534041 57.65615651 166.40243674 61.21890259 166.40713501 C67.20229292 166.41258254 73.18557192 166.40542887 79.16894531 166.39111328 C86.06497622 166.37480357 92.96074075 166.38006698 99.85676515 166.3965925 C105.79760862 166.41025394 111.73837239 166.41210393 117.67922652 166.40427649 C121.21851116 166.39962352 124.75767108 166.39890872 128.29694748 166.40888596 C132.24803576 166.41924719 136.19883149 166.40484246 140.14990234 166.38818359 C141.3076265 166.39425629 142.46535065 166.40032898 143.65815735 166.40658569 C153.25040648 166.33197689 162.08904766 165.16594572 169.09823036 158.15006256 C175.52384186 150.8855304 176.73516639 143.32497031 176.64697266 133.91601562 C176.65573425 132.75043625 176.66449585 131.58485687 176.67352295 130.38395691 C176.69540464 126.55766813 176.68100245 122.73254911 176.6640625 118.90625 C176.66743383 116.23163435 176.67228251 113.55705328 176.67855835 110.88244629 C176.68762504 105.2875518 176.67574609 99.69298858 176.65185547 94.09814453 C176.62464939 87.65291432 176.63346571 81.20847524 176.6609875 74.76326418 C176.68376336 69.20449754 176.6868376 63.64596745 176.67379415 58.08716917 C176.66604574 54.77807804 176.66682649 51.46943484 176.68147659 48.16035461 C176.6942389 44.4676947 176.67472935 40.77653328 176.64697266 37.08398438 C176.65709381 36.00420822 176.66721497 34.92443207 176.67764282 33.81193542 C176.55808289 25.18436265 174.12941472 18.78823887 168.625 12.125 C159.60786907 4.82541782 151.16650119 3.70041233 139.79760742 3.70947266 C137.9767437 3.69939682 137.9767437 3.69939682 136.11909485 3.68911743 C132.80481707 3.67342148 129.49078998 3.66676517 126.17649245 3.66548586 C124.10108807 3.66405949 122.02570958 3.65978073 119.95031166 3.65449142 C112.69626841 3.63601508 105.44229842 3.62781776 98.18823242 3.62939453 C91.44838968 3.63059515 84.70886756 3.6095025 77.9691059 3.5779072 C72.16417041 3.55167334 66.35933919 3.54103021 60.55434495 3.54230535 C57.09545838 3.54281292 53.63685702 3.53724446 50.17803001 3.51594925 C46.31542041 3.49281494 42.45324355 3.50213115 38.59057617 3.51416016 C37.45933319 3.50292114 36.32809021 3.49168213 35.16256714 3.48010254 C24.29921619 3.56576827 15.23663642 6.5992716 8 15 Z " fill="#F8FAFE" transform="translate(0,0)"/>
<path d="M0 0 C3.4375 1 3.4375 1 5.4375 2.6875 C6.85409581 5.96337782 6.42388926 7.56735514 5.4375 11 C3.67014775 13.47908478 1.56378196 15.55132482 -0.609375 17.67578125 C-1.21759094 18.28640915 -1.82580688 18.89703705 -2.45245361 19.52616882 C-3.73764955 20.81038779 -5.02904638 22.08842731 -6.32617188 23.3605957 C-8.30769541 25.30777868 -10.26407508 27.27785928 -12.21875 29.25195312 C-13.4725292 30.49883452 -14.7276925 31.74432603 -15.984375 32.98828125 C-16.56789734 33.57676346 -17.15141968 34.16524567 -17.75262451 34.77156067 C-23.09681322 39.96379956 -23.09681322 39.96379956 -27.5625 40 C-30.28125 38.3046875 -30.28125 38.3046875 -33.0625 35.875 C-33.9803125 35.08867188 -34.898125 34.30234375 -35.84375 33.4921875 C-36.7409375 32.66976562 -37.638125 31.84734375 -38.5625 31 C-39.96628906 29.72382812 -39.96628906 29.72382812 -41.3984375 28.421875 C-43.5625 26 -43.5625 26 -43.6875 22.375 C-42.5625 19 -42.5625 19 -40.375 16.9375 C-36.58871793 15.67540598 -35.12626756 16.25448119 -31.5625 18 C-29.43101854 19.56341009 -27.52835147 21.22137248 -25.5625 23 C-25.294375 22.360625 -25.02625 21.72125 -24.75 21.0625 C-23.5625 19 -23.5625 19 -20.5625 18 C-20.294375 17.4225 -20.02625 16.845 -19.75 16.25 C-18.34737173 13.59238853 -16.47482386 12.13742112 -14.14453125 10.2890625 C-10.99172808 7.72011177 -8.20385429 4.8123821 -5.6875 1.625 C-3.5625 0 -3.5625 0 0 0 Z " fill="#F6F9FD" transform="translate(143.5625,37)"/>
<path d="M0 0 C4.24893542 1.41228819 4.24893542 1.41228819 5.75 3.9140625 C6.17501432 7.12870739 6.47977991 9.70825047 4.74557495 12.57366943 C3.27092223 14.30225839 1.72116251 15.88708139 0.08984375 17.46875 C-0.7841935 18.34927536 -0.7841935 18.34927536 -1.67588806 19.24758911 C-2.90914217 20.4812237 -4.15112572 21.70618535 -5.40112305 22.92285156 C-7.30501044 24.78174992 -9.17181115 26.67278184 -11.03710938 28.5703125 C-12.24272648 29.76770796 -13.45034619 30.96309112 -14.66015625 32.15625 C-15.21461929 32.71972137 -15.76908234 33.28319275 -16.34034729 33.86373901 C-20.09853672 37.46784712 -22.83287911 38.88375184 -28.25 38.9140625 C-31.19921875 36.96484375 -31.19921875 36.96484375 -33.9375 34.2265625 C-34.84886719 33.33582031 -35.76023437 32.44507813 -36.69921875 31.52734375 C-37.54097656 30.66496094 -38.38273437 29.80257812 -39.25 28.9140625 C-40.00796875 28.20636719 -40.7659375 27.49867187 -41.546875 26.76953125 C-43.25 24.9140625 -43.25 24.9140625 -43.8125 21.9140625 C-43.25 18.9140625 -43.25 18.9140625 -41.0625 16.4765625 C-38.25 14.9140625 -38.25 14.9140625 -35.8125 14.8515625 C-32.31170719 16.30311074 -30.05563437 18.36941737 -27.25 20.9140625 C-24.37682465 19.59088964 -22.12052536 18.12886775 -19.75 16.0390625 C-19.06164062 15.43320313 -18.37328125 14.82734375 -17.6640625 14.203125 C-15.79221079 12.42819765 -14.02888013 10.63506157 -12.2734375 8.75 C-11.75330078 8.20069824 -11.23316406 7.65139648 -10.69726562 7.08544922 C-9.66177976 5.98468272 -8.6416369 4.86924687 -7.63867188 3.73876953 C-5.01685673 0.96515586 -3.90156575 -0.1031664 0 0 Z " fill="#F7FAFD" transform="translate(143.25,86.0859375)"/>
<path d="M0 0 C1.07121094 -0.0127597 2.14242187 -0.02551941 3.24609375 -0.03866577 C4.98052734 -0.04200424 4.98052734 -0.04200424 6.75 -0.04541016 C7.93722656 -0.05206696 9.12445313 -0.05872375 10.34765625 -0.06558228 C12.85935922 -0.07571344 15.37108912 -0.08039915 17.8828125 -0.08007812 C21.73482302 -0.08445541 25.58569199 -0.12078379 29.4375 -0.15869141 C31.87499607 -0.16455847 34.3124976 -0.1685286 36.75 -0.17041016 C37.90628906 -0.18478119 39.06257813 -0.19915222 40.25390625 -0.21395874 C41.86072266 -0.20472885 41.86072266 -0.20472885 43.5 -0.1953125 C44.44359375 -0.19816254 45.3871875 -0.20101257 46.359375 -0.20394897 C48.75 0.29052734 48.75 0.29052734 50.58203125 2.09823608 C52.37015997 5.45457499 51.72825819 7.70358063 50.75 11.29052734 C47.82198443 14.12785728 45.71222949 14.67209116 41.69360352 14.71044922 C40.18667686 14.73431702 40.18667686 14.73431702 38.64930725 14.75866699 C37.57007492 14.75886841 36.49084259 14.75906982 35.37890625 14.75927734 C33.70718605 14.77069763 33.70718605 14.77069763 32.00169373 14.78234863 C29.6456018 14.79315039 27.289462 14.79600245 24.93334961 14.79150391 C21.32910288 14.79053182 17.72698609 14.83215109 14.12304688 14.87646484 C11.83333777 14.88167198 9.54362127 14.88436004 7.25390625 14.88427734 C6.17669815 14.90067261 5.09949005 14.91706787 3.98963928 14.93395996 C-3.44790777 14.86528407 -3.44790777 14.86528407 -7.46899414 11.98388672 C-9.25 9.29052734 -9.25 9.29052734 -9.25 5.60302734 C-7.65771272 0.32857572 -5.02683961 0.04061345 0 0 Z " fill="#F3F7FD" transform="translate(40.25,54.70947265625)"/>
<path d="M0 0 C1.11306519 -0.0038269 2.22613037 -0.00765381 3.3729248 -0.01159668 C5.72307237 -0.01431514 8.07325022 -0.0069587 10.42333984 0.00976562 C14.01859049 0.03117462 17.61184269 0.00996003 21.20703125 -0.015625 C23.49219191 -0.01298171 25.77735132 -0.00785672 28.0625 0 C29.13657104 -0.00809692 30.21064209 -0.01619385 31.31726074 -0.02453613 C38.73364608 0.06855159 38.73364608 0.06855159 42.71289062 2.37695312 C44.53125 4.53125 44.53125 4.53125 45.09375 7.53125 C44.40403358 11.20973758 43.41634781 12.21036411 40.53125 14.53125 C38.06506348 15.03918457 38.06506348 15.03918457 35.27539062 15.04882812 C33.70356018 15.06774109 33.70356018 15.06774109 32.09997559 15.08703613 C30.41080017 15.07489075 30.41080017 15.07489075 28.6875 15.0625 C26.94563416 15.06824036 26.94563416 15.06824036 25.1685791 15.07409668 C22.71410251 15.07681792 20.25959702 15.06944205 17.80517578 15.05273438 C14.04524159 15.03132965 10.28721841 15.05253088 6.52734375 15.078125 C4.14322494 15.07548176 1.75910733 15.07035688 -0.625 15.0625 C-1.75111694 15.07059692 -2.87723389 15.07869385 -4.03747559 15.08703613 C-5.08536255 15.07442749 -6.13324951 15.06181885 -7.21289062 15.04882812 C-8.13348267 15.04564575 -9.05407471 15.04246338 -10.00256348 15.03918457 C-13.24100731 14.37219626 -14.44024983 13.09281001 -16.46875 10.53125 C-17.03125 7.53125 -17.03125 7.53125 -16.46875 4.53125 C-11.97683869 -0.79053106 -6.42937677 -0.04846809 0 0 Z " fill="#FAFCFE" transform="translate(47.46875,100.46875)"/>
</svg>
