<?xml version="1.0" encoding="UTF-8"?>
<svg version="1.1" xmlns="http://www.w3.org/2000/svg" width="339" height="328">
<path d="M0 0 C111.87 0 223.74 0 339 0 C339 108.24 339 216.48 339 328 C227.13 328 115.26 328 0 328 C0 219.76 0 111.52 0 0 Z " fill="#FCFDFE" transform="translate(0,0)"/>
<path d="M0 0 C111.87 0 223.74 0 339 0 C339 108.24 339 216.48 339 328 C227.13 328 115.26 328 0 328 C0 219.76 0 111.52 0 0 Z M78 54 C77.17113281 54.72058594 76.34226563 55.44117188 75.48828125 56.18359375 C72.95702159 58.42025045 70.47238115 60.69853909 68 63 C67.26007813 63.67417969 66.52015625 64.34835938 65.7578125 65.04296875 C42.58264398 87.02226559 28.0733858 120.5127145 26.8737793 152.34985352 C26.30715153 174.87697401 26.30715153 174.87697401 30 197 C30.28206299 198.08667969 30.28206299 198.08667969 30.56982422 199.1953125 C35.44334247 217.49523782 43.36770854 235.0058938 55 250 C55.70640625 250.92683594 56.4128125 251.85367188 57.140625 252.80859375 C76.05446526 276.79107105 100.78991078 293.15213065 130 302 C130.99515625 302.31453125 131.9903125 302.6290625 133.015625 302.953125 C168.03192628 312.92983654 207.55120927 306.3573268 239 289 C249.17373466 283.09545077 258.32092142 275.9112923 267 268 C267.94617188 267.13761719 268.89234375 266.27523437 269.8671875 265.38671875 C292.26500271 243.97237702 305.36396099 215.38143986 310 185 C310.28617187 183.14181641 310.28617187 183.14181641 310.578125 181.24609375 C314.72894825 145.94881966 306.18731663 109.68841631 285 81 C284.17435547 79.85917969 284.17435547 79.85917969 283.33203125 78.6953125 C259.46980856 46.841229 226.47084851 29.53980235 187.80078125 22.41015625 C149.28804411 18.25410548 107.5303904 27.89050662 78 54 Z " fill="#FEFEFE" transform="translate(0,0)"/>
<path d="M0 0 C1.15628906 0.2784375 2.31257812 0.556875 3.50390625 0.84375 C24.55326223 6.39943895 43.67857129 15.4548782 60 30 C60.83789062 30.71800781 61.67578125 31.43601563 62.5390625 32.17578125 C89.41511098 55.59871515 105.90284641 88.65244565 110 124 C110.27892222 128.5462671 110.334157 133.07097936 110.3125 137.625 C110.30831055 138.84340576 110.30412109 140.06181152 110.29980469 141.31713867 C110.17411896 151.45556421 109.16397035 161.10518613 107 171 C106.61714844 172.85818359 106.61714844 172.85818359 106.2265625 174.75390625 C97.83979296 210.41691251 74.3840152 241.01608308 43.66064453 260.49243164 C11.72373371 280.06380936 -26.9860198 287.53005651 -63.7421875 278.96484375 C-90.20285356 272.20803386 -112.20290378 259.63054289 -132 241 C-132.97646484 240.12021484 -132.97646484 240.12021484 -133.97265625 239.22265625 C-150.15910888 224.03331569 -161.62531545 203.0971703 -168 182 C-168.36609375 180.84242188 -168.7321875 179.68484375 -169.109375 178.4921875 C-173.00352611 165.65277624 -174.37000552 153.27128579 -174.3125 139.875 C-174.31067719 139.19846375 -174.30885437 138.52192749 -174.30697632 137.82489014 C-174.25645563 126.64418434 -173.5556672 115.89871703 -171 105 C-170.8443457 104.3090625 -170.68869141 103.618125 -170.52832031 102.90625 C-166.53021286 85.79658456 -158.59317592 69.00560216 -148 55 C-147.32710937 54.10667969 -146.65421875 53.21335938 -145.9609375 52.29296875 C-122.70497462 22.73675411 -90.13709525 3.88083676 -53.0625 -2.3125 C-35.50535135 -4.29506619 -17.19817036 -4.25824495 0 0 Z M-56 18 C-56.74048584 18.13543213 -57.48097168 18.27086426 -58.24389648 18.41040039 C-78.54718441 22.22788125 -97.3439628 31.55896484 -113 45 C-113.82242188 45.68835938 -114.64484375 46.37671875 -115.4921875 47.0859375 C-126.08303376 56.22507898 -134.13918156 66.8524903 -141 79 C-141.53367187 79.93070313 -142.06734375 80.86140625 -142.6171875 81.8203125 C-145.85105586 87.83564276 -148.16167862 94.0176356 -150.25 100.5 C-150.49637207 101.25877441 -150.74274414 102.01754883 -150.99658203 102.79931641 C-154.44320054 113.99189442 -155.36402927 124.9502605 -155.3125 136.625 C-155.30758545 137.94443604 -155.3026709 139.26387207 -155.29760742 140.62329102 C-154.90394067 173.55200098 -142.67206638 202.27530197 -120 226 C-119.01 227.10214844 -119.01 227.10214844 -118 228.2265625 C-97.76813897 249.91450444 -66.36154566 262.0744517 -37.10546875 263.24609375 C-3.00470851 264.01186521 28.46651017 252.1505905 53.421875 228.8359375 C69.45573289 213.50334445 81.27745446 194.53264397 87 173 C87.29197266 171.95295898 87.29197266 171.95295898 87.58984375 170.88476562 C95.93333576 139.99203215 91.92751078 105.55044505 76.1875 77.625 C58.28314305 48.13748082 31.81041428 27.31487578 -1.8046875 19.06640625 C-5.19672087 18.31700353 -8.58099517 17.6140931 -12 17 C-13.03769531 16.81308594 -14.07539063 16.62617187 -15.14453125 16.43359375 C-20.49876137 15.83144629 -25.80363274 15.81571425 -31.1875 15.8125 C-32.77788086 15.79413086 -32.77788086 15.79413086 -34.40039062 15.77539062 C-41.79888704 15.76186504 -48.74783649 16.57060877 -56 18 Z " fill="#2E65F6" transform="translate(201,25)"/>
<path d="M0 0 C9.98187006 7.84154498 15.88986252 18.05288507 18.05859375 30.6171875 C19.41568782 41.95981321 16.34727574 53.61587045 9.5546875 62.796875 C2.13601529 71.82324902 -7.33417825 78.3793976 -18.94140625 80.6171875 C-32.07043076 81.66272984 -43.68944598 79.91923848 -54.17578125 71.1953125 C-55.04976562 70.41414063 -55.04976562 70.41414063 -55.94140625 69.6171875 C-56.84632813 68.86695313 -56.84632813 68.86695313 -57.76953125 68.1015625 C-64.60486252 61.97948319 -70.14423707 51.83259057 -71.16040039 42.63500977 C-71.91857213 28.66660559 -69.71407133 17.84449123 -60.94140625 6.6171875 C-60.46316406 6.00101563 -59.98492187 5.38484375 -59.4921875 4.75 C-44.42401563 -12.32979179 -17.62520937 -12.62982917 0 0 Z " fill="#2E64F6" transform="translate(248.94140625,167.3828125)"/>
<path d="M0 0 C1.0301976 -0.00846954 2.0603952 -0.01693909 3.12181091 -0.02566528 C6.51443965 -0.04899121 9.90661367 -0.05005843 13.29931641 -0.04882812 C15.66671936 -0.05593245 18.0341206 -0.06363185 20.40151978 -0.07189941 C25.35936267 -0.08533423 30.31704636 -0.08691745 35.27490234 -0.08105469 C41.61563259 -0.0751604 47.95559669 -0.10574476 54.29617882 -0.14617157 C59.18452034 -0.17207173 64.07267797 -0.17492381 68.96107864 -0.17127991 C71.2981725 -0.17296904 73.63527505 -0.18259146 75.97230148 -0.20042419 C79.24637286 -0.22265818 82.51890084 -0.21288801 85.79296875 -0.1953125 C86.75014297 -0.20857574 87.7073172 -0.22183899 88.6934967 -0.23550415 C96.16444393 -0.14272428 101.90057903 1.99205033 107.38239098 7.17533112 C113.20107971 13.38143543 114.99242353 19.72718576 114.99462891 28.02148438 C115.00224243 28.82097504 115.00985596 29.6204657 115.0177002 30.44418335 C115.02844379 32.12323907 115.03137782 33.80236131 115.02685547 35.48144531 C115.02587872 38.04539794 115.06765154 40.60639703 115.11181641 43.16992188 C115.11702109 44.80793651 115.11971164 46.44596147 115.11962891 48.08398438 C115.13602417 48.8455484 115.15241943 49.60711243 115.16931152 50.39175415 C115.11713886 54.41622013 114.68624866 56.21847138 112.14892578 59.40576172 C109.52587891 61.41992188 109.52587891 61.41992188 106.96337891 61.98242188 C103.62357174 61.21169714 102.59387131 60.16009933 100.52587891 57.41992188 C100.16767474 54.52448509 100.03825998 52.00006589 100.09228516 49.11132812 C100.08267958 47.46093656 100.07290886 45.81054595 100.06298828 44.16015625 C100.07158703 41.56849375 100.08842461 38.97707912 100.1105957 36.38549805 C100.12513732 33.87694978 100.10985015 31.36982612 100.09228516 28.86132812 C100.10876602 28.09035294 100.12524689 27.31937775 100.14222717 26.52503967 C100.10831321 22.86037863 99.74472177 20.72872957 97.61009216 17.71656799 C93.2672313 14.48267536 89.86762326 14.71587926 84.58251953 14.77294922 C83.08654488 14.75980682 83.08654488 14.75980682 81.56034851 14.74639893 C78.2671647 14.72441136 74.97532611 14.73895624 71.68212891 14.75585938 C69.39196515 14.75249108 67.10180314 14.74763835 64.81164551 14.74136353 C60.0132545 14.73399302 55.21532906 14.74470402 50.41699219 14.76806641 C44.26630853 14.79655357 38.11671572 14.78015065 31.96607208 14.75020409 C27.23740418 14.73213634 22.50899491 14.7378869 17.78031921 14.75084305 C15.51250581 14.75417847 13.24466892 14.75008524 10.97688293 14.73844528 C7.8070354 14.72574587 4.63895424 14.74510272 1.46923828 14.77294922 C0.53194382 14.76282806 -0.40535065 14.75270691 -1.37104797 14.74227905 C-5.50264892 14.80952086 -7.93021835 15.10574313 -11.55613708 17.20021057 C-14.52731283 22.18791019 -14.16255487 26.87835847 -14.10522461 32.58227539 C-14.11237991 33.81528381 -14.11953522 35.04829224 -14.12690735 36.31866455 C-14.14090585 39.69305005 -14.13250115 43.06590004 -14.11281705 46.44016004 C-14.09641223 49.97370122 -14.10524581 53.50719298 -14.1103363 57.04075623 C-14.11485466 62.97318143 -14.09900233 68.90529106 -14.07104492 74.83764648 C-14.03897906 81.69462471 -14.03901508 88.5510343 -14.05625969 95.40805298 C-14.072126 102.00810468 -14.06539163 108.60794806 -14.04832268 115.20799065 C-14.04145321 118.01536548 -14.04248338 120.82257328 -14.04986763 123.62994576 C-14.05895468 127.54917187 -14.03499214 131.46781399 -14.00756836 135.38696289 C-14.01409424 136.55227036 -14.02062012 137.71757782 -14.02734375 138.91819763 C-14.01461929 139.98506805 -14.00189484 141.05193848 -13.98878479 142.15113831 C-13.98457441 143.54067892 -13.98457441 143.54067892 -13.98027897 144.95829105 C-13.31967847 148.17103284 -11.96467517 149.35734459 -9.47412109 151.41992188 C-6.92053302 152.69671591 -5.12041583 152.54451976 -2.26171875 152.54589844 C-0.62959946 152.55160858 -0.62959946 152.55160858 1.03549194 152.55743408 C2.21567902 152.5584613 3.39586609 152.55948853 4.61181641 152.56054688 C7.09359644 152.57887114 9.57536754 152.5984411 12.05712891 152.61914062 C15.98338914 152.64815482 19.90907467 152.66992289 23.83544922 152.67041016 C27.61559475 152.67373524 31.39440222 152.70823083 35.17431641 152.74804688 C36.35045502 152.74097717 37.52659363 152.73390747 38.7383728 152.72662354 C46.85969861 152.84844081 46.85969861 152.84844081 50.29785156 155.79785156 C51.52587891 158.41992188 51.52587891 158.41992188 51.52587891 161.04492188 C50.29598843 163.96591175 49.22732259 164.7924891 46.52587891 166.41992188 C43.9102478 166.82106018 43.9102478 166.82106018 40.90625 166.85571289 C39.77762543 166.87485245 38.64900085 166.893992 37.48617554 166.91371155 C36.26951202 166.91705002 35.05284851 166.92038849 33.79931641 166.92382812 C32.54132233 166.93381332 31.28332825 166.94379852 29.98721313 166.9540863 C27.32220692 166.96928219 24.65811816 166.97760929 21.99316406 166.97583008 C18.60356626 166.97552668 15.21587489 167.0163305 11.82672691 167.06814671 C8.567665 167.10986667 5.30860867 167.10778273 2.04931641 167.11132812 C0.84479828 167.13288467 -0.35971985 167.15444122 -1.60073853 167.176651 C-9.64301846 167.11196523 -15.17418279 165.54144445 -21.47412109 160.41992188 C-28.41484506 152.89350561 -28.77234963 144.99784199 -28.76464844 135.1315918 C-28.77136566 133.89671524 -28.77808289 132.66183868 -28.78500366 131.38954163 C-28.8007175 128.01329175 -28.80735699 124.63728792 -28.80863523 121.26101851 C-28.81006025 119.1479378 -28.81433648 117.0348826 -28.81962967 114.92180824 C-28.83811458 107.53924558 -28.8463023 100.15675496 -28.84472656 92.77416992 C-28.84352587 85.90993043 -28.86461772 79.04600572 -28.89621389 72.18184584 C-28.92243092 66.27418716 -28.93309158 60.36663094 -28.93181574 54.45891458 C-28.93130766 50.93688995 -28.93690493 47.41514523 -28.95817184 43.89317894 C-28.98127018 39.96080796 -28.97200014 36.02886315 -28.95996094 32.09643555 C-28.97119995 30.94132477 -28.98243896 29.78621399 -28.99401855 28.59609985 C-28.93233324 20.64946911 -27.50816452 14.59261563 -22.79833984 8.11523438 C-22.25822266 7.59703125 -21.71810547 7.07882813 -21.16162109 6.54492188 C-20.36304687 5.74441406 -20.36304687 5.74441406 -19.54833984 4.92773438 C-13.25537254 0.35318564 -7.54730371 -0.02301043 0 0 Z " fill="#2C62F5" transform="translate(120.47412109375,78.580078125)"/>
<path d="M0 0 C-1.45639776 3.34594021 -3.29739604 5.55034467 -5.8671875 8.12597656 C-6.66141113 8.92650452 -7.45563477 9.72703247 -8.27392578 10.55181885 C-9.56145752 11.83327789 -9.56145752 11.83327789 -10.875 13.140625 C-11.75526855 14.02280701 -12.63553711 14.90498901 -13.54248047 15.81390381 C-15.87898248 18.15211439 -18.22029419 20.48538201 -20.56323242 22.81713867 C-22.47820763 24.72690749 -24.38572401 26.64404093 -26.29330444 28.56119156 C-28.56569023 30.8425236 -30.84566231 33.11624194 -33.125 35.390625 C-34.41253174 36.68422943 -34.41253174 36.68422943 -35.72607422 38.00396729 C-36.52029785 38.7918866 -37.31452148 39.57980591 -38.1328125 40.39160156 C-38.83293457 41.09013245 -39.53305664 41.78866333 -40.25439453 42.50836182 C-42 44 -42 44 -44 44 C-48.25525604 35.58447132 -49.54956725 27.50084724 -47.33984375 18.23046875 C-44.05844178 8.98288137 -37.2313266 1.6156633 -28.5 -2.75 C-18.69893914 -6.09085125 -9.1836291 -4.12251086 0 0 Z " fill="#FCFDFE" transform="translate(239,176)"/>
<path d="M0 0 C3.98806164 3.71996239 4.85425776 7.36463644 5.3359375 12.76953125 C5.50948768 20.50057552 5.44350874 27.38116161 1 34 C0.53722656 34.69480469 0.07445312 35.38960937 -0.40234375 36.10546875 C-5.69244234 42.99941142 -12.92291837 47.27069546 -21.53515625 48.5078125 C-29.13413679 48.75587498 -35.24972044 47.48401526 -42 44 C-40.54131246 40.64000982 -38.69131052 38.44796894 -36.10107422 35.87402344 C-34.90005569 34.67323151 -34.90005569 34.67323151 -33.67477417 33.44818115 C-32.81014557 32.59387512 -31.94551697 31.73956909 -31.0546875 30.859375 C-30.1696756 29.97719299 -29.2846637 29.09501099 -28.37283325 28.18609619 C-26.02549869 25.84805457 -23.67393215 23.51444126 -21.32019043 21.18286133 C-18.91686073 18.80003474 -16.51922233 16.41149652 -14.12109375 14.0234375 C-9.41928533 9.34368138 -4.71181336 4.66968133 0 0 Z " fill="#FDFDFE" transform="translate(248,187)"/>
<path d="M0 0 C0.68812271 -0.00511093 1.37624542 -0.01022186 2.08522034 -0.01548767 C4.35963641 -0.02938705 6.63374963 -0.0284269 8.90820312 -0.02612305 C10.48856723 -0.03000939 12.06893029 -0.03434394 13.64929199 -0.03910828 C16.96137885 -0.04657092 20.27335912 -0.04627862 23.58544922 -0.04101562 C27.83271667 -0.03521654 32.07954866 -0.05216204 36.32674408 -0.0753603 C39.59009355 -0.09008057 42.85333769 -0.09097176 46.11671448 -0.08785057 C47.68283451 -0.0883645 49.24896033 -0.09361572 50.81504822 -0.10366249 C53.00329034 -0.11597894 55.19067814 -0.10926535 57.37890625 -0.09765625 C58.62450317 -0.09828568 59.8701001 -0.0989151 61.15344238 -0.0995636 C64.18945312 0.2746582 64.18945312 0.2746582 66.0916748 1.57917786 C67.94849185 4.44696706 67.54299464 6.9749374 67.18945312 10.2746582 C66.09068298 11.96716309 66.09068298 11.96716309 64.18945312 13.2746582 C61.16017151 13.66906738 61.16017151 13.66906738 57.39477539 13.69458008 C56.36500076 13.70728439 56.36500076 13.70728439 55.31442261 13.72024536 C53.04471316 13.7436472 50.77568035 13.74463683 48.50585938 13.7434082 C46.92788928 13.750508 45.34992178 13.75820673 43.7719574 13.76647949 C40.46402817 13.77993164 37.15633762 13.78148991 33.84838867 13.77563477 C29.60990131 13.76973838 25.37255933 13.80032272 21.13429356 13.84075165 C17.87515598 13.86660613 14.61629501 13.86950817 11.35706902 13.86585999 C9.79454609 13.86755343 8.23201069 13.87721768 6.66958809 13.89500427 C4.48345522 13.91715176 2.29965054 13.90751772 0.11352539 13.88989258 C-1.12985092 13.89194702 -2.37322723 13.89400146 -3.65428162 13.89611816 C-6.81054688 13.2746582 -6.81054688 13.2746582 -9.24720764 10.9354248 C-10.81054688 8.2746582 -10.81054688 8.2746582 -10.74804688 5.0871582 C-8.90418805 -0.44441826 -5.13843114 0.01900676 0 0 Z " fill="#2B61F6" transform="translate(131.810546875,123.725341796875)"/>
<path d="M0 0 C1.57194374 -0.01902626 1.57194374 -0.01902626 3.17564392 -0.03843689 C4.30692215 -0.03550125 5.43820038 -0.03256561 6.60375977 -0.02954102 C8.34774803 -0.03740379 8.34774803 -0.03740379 10.12696838 -0.04542542 C12.58740439 -0.05185303 15.04787109 -0.05049912 17.50830078 -0.04199219 C21.27700456 -0.03348825 25.04419044 -0.06222629 28.81274414 -0.09399414 C31.20141556 -0.09560631 33.59008967 -0.09502831 35.97875977 -0.09204102 C37.10801376 -0.10327499 38.23726776 -0.11450897 39.40074158 -0.12608337 C40.45185623 -0.11670242 41.50297089 -0.10732147 42.5859375 -0.09765625 C43.50954575 -0.09749008 44.43315399 -0.09732391 45.38475037 -0.09715271 C48.64911797 0.56446258 49.86380634 1.77780531 51.85766602 4.40405273 C51.79516602 8.02905273 51.79516602 8.02905273 50.85766602 11.40405273 C47.55661996 13.60475011 46.53827877 13.65960705 42.69946289 13.67871094 C41.64827271 13.68824295 40.59708252 13.69777496 39.51403809 13.70759583 C38.3796228 13.70668442 37.24520752 13.70577301 36.07641602 13.70483398 C34.9113855 13.70911911 33.74635498 13.71340424 32.54602051 13.71781921 C30.08138682 13.72356546 27.61673618 13.72406062 25.15209961 13.71972656 C21.37267276 13.71656529 17.59402736 13.74002779 13.81469727 13.76538086 C11.42277117 13.7676536 9.03084297 13.76835747 6.63891602 13.76733398 C4.93729309 13.78114861 4.93729309 13.78114861 3.20129395 13.79524231 C2.15010376 13.78901352 1.09891357 13.78278473 0.01586914 13.77636719 C-1.37287415 13.77731133 -1.37287415 13.77731133 -2.78967285 13.77827454 C-5.14233398 13.40405273 -5.14233398 13.40405273 -6.94128418 12.09953308 C-8.94928737 9.26490464 -8.50069281 6.74873513 -8.14233398 3.40405273 C-5.83735393 0.15668089 -3.85333232 0.02256091 0 0 Z " fill="#2B60F5" transform="translate(130.142333984375,155.595947265625)"/>
<path d="M0 0 C1.13244141 -0.01998047 2.26488281 -0.03996094 3.43164062 -0.06054688 C11.69132066 -0.05567965 11.69132066 -0.05567965 15.8125 2.27734375 C17.5625 4.4375 17.5625 4.4375 18.125 7.4375 C17.43110421 11.13827755 16.49671837 12.1298214 13.5625 14.4375 C9.10233211 15.26676028 4.59112553 15.04013902 0.0625 15 C-1.17371094 15.02384766 -2.40992188 15.04769531 -3.68359375 15.07226562 C-4.87082031 15.07033203 -6.05804688 15.06839844 -7.28125 15.06640625 C-8.36599609 15.06713135 -9.45074219 15.06785645 -10.56835938 15.06860352 C-13.4375 14.4375 -13.4375 14.4375 -15.82226562 12.09350586 C-17.4375 9.4375 -17.4375 9.4375 -17.4375 6.3125 C-14.69705503 -1.5662793 -6.993523 -0.04363514 0 0 Z " fill="#2E63F6" transform="translate(138.4375,186.5625)"/>
</svg>
